{"title":"New Tricks  S11E09 x264 RB58.mp4","uid":11212017,"size":664840099,"categoryP":"video","categoryS":"tv_shows","magnet":"?xt=urn:btih:040140c653e52564c92cef0301b7959b089fce9b&amp;dn=New+Tricks++S11E09+x264+RB58.mp4&amp;tr=udp%3A%2F%2Ftracker.openbittorrent.com%3A80&amp;tr=udp%3A%2F%2Fopen.demonii.com%3A1337&amp;tr=udp%3A%2F%2Ftracker.coppersurfer.tk%3A6969&amp;tr=udp%3A%2F%2Fexodus.desync.com%3A6969","seeders":3,"leechers":2,"uploader":"RedBaron58","files":1,"time":1413287720,"description":"New Tricks S11E09 Breadcrumbs - Comedy Crime Drama x264 mp4\n &lt;a href=&quot;\nhttp://www.imdb.com/title/tt0362357/&quot; rel=&quot;nofollow&quot; target=&quot;_NEW&quot;&gt;\nhttp://www.imdb.com/title/tt0362357/&lt;/a&gt;\n\nTrailer: &lt;a href=&quot;\nhttp://www.bbc.co.uk/programmes/p024vpz2&quot; rel=&quot;nofollow&quot; target=&quot;_NEW&quot;&gt;\nhttp://www.bbc.co.uk/programmes/p024vpz2&lt;/a&gt;\n\n\nPlease be patient My intial upload speed is limited.\nThank you for your kind comments and thumbs ups on my other torrents, your feedback is welcome.\n\n\nAbout the Episode:\nAn elderly amateur sleuth who was a friend of Danny's is murdered, and he ends up embroiled in the case \nwhen his photo is found at the scene. However, the cold case copper becomes convinced that the secret to \nuncovering her real killer lies within the last case she was working on. \nPicking up where she left off, he travels to the village of Minchampton, where a woman was said to have \nbeen murdered by a local lad 25 years previously.\n\nStarring Dennis Waterman, Tamzin Outhwaite and Nicholas Lyndhurst \n\n\nI hope you enjoy.\n\nTechnical:\n\nGeneral\nComplete name                            : H:New Tricks  S11E09 x264 RB58.mp4\nFormat                                   : MPEG-4\nFormat profile                           : Base Media\nCodec ID                                 : isom\nFile size                                : 634 MiB\nDuration                                 : 58mn 58s\nOverall bit rate mode                    : Constant\nOverall bit rate                         : 1 503 Kbps\nWriting application                      : Lavf54.63.104\n\nVideo\nID                                       : 1\nFormat                                   : AVC\nFormat/Info                              : Advanced Video Codec\nFormat profile                           : &lt;a class=&quot;__cf_email__&quot; href=&quot;/cdn-cgi/l/email-protection&quot; data-cfemail=&quot;f3be929a9db3bfc0ddc2&quot;&gt;[email&amp;#160;protected]&lt;/a&gt;&lt;script cf-hash='f9e31' type=&quot;text/javascript&quot;&gt;\n/* &lt;![CDATA[ */!function(){try{var t=&quot;currentScript&quot;in document?document.currentScript:function(){for(var t=document.getElementsByTagName(&quot;script&quot;),e=t.length;e--;)if(t[e].getAttribute(&quot;cf-hash&quot;))return t[e]}();if(t&amp;&amp;t.previousSibling){var e,r,n,i,c=t.previousSibling,a=c.getAttribute(&quot;data-cfemail&quot;);if(a){for(e=&quot;&quot;,r=parseInt(a.substr(0,2),16),n=2;a.length-n;n+=2)i=parseInt(a.substr(n,2),16)^r,e+=String.fromCharCode(i);e=document.createTextNode(e),c.parentNode.replaceChild(e,c)}}}catch(u){}}();/* ]]&gt; */&lt;/script&gt;\nFormat settings, CABAC                   : Yes\nFormat settings, ReFrames                : 2 frames\nCodec ID                                 : avc1\nCodec ID/Info                            : Advanced Video Coding\nDuration                                 : 58mn 58s\nBit rate mode                            : Constant\nBit rate                                 : 1 404 Kbps\nWidth                                    : 832 pixels\nHeight                                   : 468 pixels\nDisplay aspect ratio                     : 16:9\nFrame rate mode                          : Constant\nFrame rate                               : 25.000 fps\nColor space                              : YUV\nChroma subsampling                       : 4:2:0\nBit depth                                : 8 bits\nScan type                                : Progressive\nBits/(Pixel*Frame)                       : 0.144\nStream size                              : 592 MiB (93%)\n\nAudio\nID                                       : 2\nFormat                                   : AAC\nFormat/Info                              : Advanced Audio Codec\nFormat profile                           : LC\nCodec ID                                 : 40\nDuration                                 : 58mn 58s\nBit rate mode                            : Constant\nBit rate                                 : 93.5 Kbps\nChannel(s)                               : 2 channels\nChannel positions                        : Front: L R\nSampling rate                            : 48.0 KHz\nCompression mode                         : Lossy\nStream size                              : 39.4 MiB (6%)","torrent":{"xt":"urn:btih:040140c653e52564c92cef0301b7959b089fce9b","amp;dn":"New+Tricks++S11E09+x264+RB58.mp4","amp;tr":["udp%3A%2F%2Ftracker.openbittorrent.com%3A80","udp%3A%2F%2Fopen.demonii.com%3A1337","udp%3A%2F%2Ftracker.coppersurfer.tk%3A6969","udp%3A%2F%2Fexodus.desync.com%3A6969"],"infoHash":"040140c653e52564c92cef0301b7959b089fce9b","infoHashBuffer":{"type":"Buffer","data":[4,1,64,198,83,229,37,100,201,44,239,3,1,183,149,155,8,159,206,155]},"announce":[],"urlList":[]}}